<mxfile host="app.diagrams.net" agent="Mozilla/5.0 (X11; Linux x86_64; rv:133.0) Gecko/20100101 Firefox/133.0" version="25.0.3">
  <diagram name="Page-1" id="EZRtKc55ZiPXAzjO_EIF">
    <mxGraphModel dx="1434" dy="840" grid="1" gridSize="10" guides="1" tooltips="1" connect="1" arrows="1" fold="1" page="1" pageScale="1" pageWidth="850" pageHeight="1100" math="0" shadow="0">
      <root>
        <mxCell id="0" />
        <mxCell id="1" parent="0" />
        <mxCell id="YB7Tp-IhjoN3xwZKIfDS-52" value="6" style="rounded=0;whiteSpace=wrap;html=1;fillColor=#f8cecc;strokeColor=#b85450;fontStyle=1" parent="1" vertex="1">
          <mxGeometry x="90" y="440" width="50" height="50" as="geometry" />
        </mxCell>
        <mxCell id="YB7Tp-IhjoN3xwZKIfDS-53" value="7" style="rounded=0;whiteSpace=wrap;html=1;fontStyle=1;fillColor=#f5f5f5;fontColor=#333333;strokeColor=#666666;" parent="1" vertex="1">
          <mxGeometry x="140" y="440" width="50" height="50" as="geometry" />
        </mxCell>
        <mxCell id="YB7Tp-IhjoN3xwZKIfDS-54" value="4" style="rounded=0;whiteSpace=wrap;html=1;fillColor=#f5f5f5;strokeColor=#666666;fontStyle=1;fontColor=#333333;" parent="1" vertex="1">
          <mxGeometry x="190" y="440" width="50" height="50" as="geometry" />
        </mxCell>
        <mxCell id="YB7Tp-IhjoN3xwZKIfDS-55" value="1" style="rounded=0;whiteSpace=wrap;html=1;fillColor=#f5f5f5;strokeColor=#666666;fontStyle=1;fontColor=#333333;" parent="1" vertex="1">
          <mxGeometry x="240" y="440" width="50" height="50" as="geometry" />
        </mxCell>
        <mxCell id="YB7Tp-IhjoN3xwZKIfDS-56" value="6" style="rounded=0;whiteSpace=wrap;html=1;fillColor=#f8cecc;strokeColor=#b85450;fontStyle=1" parent="1" vertex="1">
          <mxGeometry x="290" y="440" width="50" height="50" as="geometry" />
        </mxCell>
        <mxCell id="YB7Tp-IhjoN3xwZKIfDS-58" value="3" style="rounded=0;whiteSpace=wrap;html=1;fillColor=#f8cecc;strokeColor=#b85450;fontStyle=1" parent="1" vertex="1">
          <mxGeometry x="40" y="440" width="50" height="50" as="geometry" />
        </mxCell>
        <mxCell id="YB7Tp-IhjoN3xwZKIfDS-80" value="" style="shape=flexArrow;endArrow=classic;html=1;rounded=0;fontStyle=1" parent="1" edge="1">
          <mxGeometry width="50" height="50" relative="1" as="geometry">
            <mxPoint x="360" y="464.5" as="sourcePoint" />
            <mxPoint x="440" y="464.5" as="targetPoint" />
          </mxGeometry>
        </mxCell>
        <mxCell id="YB7Tp-IhjoN3xwZKIfDS-81" value="Individual Chromosome" style="text;html=1;align=center;verticalAlign=middle;whiteSpace=wrap;rounded=0;fontStyle=0" parent="1" vertex="1">
          <mxGeometry x="35" y="400" width="135" height="30" as="geometry" />
        </mxCell>
        <mxCell id="YB7Tp-IhjoN3xwZKIfDS-88" value="6" style="rounded=0;whiteSpace=wrap;html=1;fillColor=#f8cecc;strokeColor=#b85450;fontStyle=1" parent="1" vertex="1">
          <mxGeometry x="510" y="440" width="50" height="50" as="geometry" />
        </mxCell>
        <mxCell id="YB7Tp-IhjoN3xwZKIfDS-89" value="1" style="rounded=0;whiteSpace=wrap;html=1;fillColor=#f5f5f5;strokeColor=#666666;fontStyle=1;fontColor=#333333;" parent="1" vertex="1">
          <mxGeometry x="560" y="440" width="50" height="50" as="geometry" />
        </mxCell>
        <mxCell id="YB7Tp-IhjoN3xwZKIfDS-90" value="4" style="rounded=0;whiteSpace=wrap;html=1;fillColor=#f5f5f5;strokeColor=#666666;fontStyle=1;fontColor=#333333;" parent="1" vertex="1">
          <mxGeometry x="610" y="440" width="50" height="50" as="geometry" />
        </mxCell>
        <mxCell id="YB7Tp-IhjoN3xwZKIfDS-91" value="7" style="rounded=0;whiteSpace=wrap;html=1;fillColor=#f5f5f5;strokeColor=#666666;fontStyle=1;fontColor=#333333;" parent="1" vertex="1">
          <mxGeometry x="660" y="440" width="50" height="50" as="geometry" />
        </mxCell>
        <mxCell id="YB7Tp-IhjoN3xwZKIfDS-92" value="6" style="rounded=0;whiteSpace=wrap;html=1;fillColor=#f8cecc;strokeColor=#b85450;fontStyle=1" parent="1" vertex="1">
          <mxGeometry x="710" y="440" width="50" height="50" as="geometry" />
        </mxCell>
        <mxCell id="YB7Tp-IhjoN3xwZKIfDS-93" value="3" style="rounded=0;whiteSpace=wrap;html=1;fillColor=#f8cecc;strokeColor=#b85450;fontStyle=1" parent="1" vertex="1">
          <mxGeometry x="460" y="440" width="50" height="50" as="geometry" />
        </mxCell>
        <mxCell id="9dZHEHK6WGQNG96B6Vrl-1" value="Mutated offspring" style="text;html=1;align=center;verticalAlign=middle;whiteSpace=wrap;rounded=0;fontStyle=0" parent="1" vertex="1">
          <mxGeometry x="440" y="400" width="135" height="30" as="geometry" />
        </mxCell>
        <mxCell id="U5etYMQuqrnoycaMx9IX-1" value="" style="endArrow=none;dashed=1;html=1;dashPattern=1 3;strokeWidth=2;rounded=0;fontSize=12;startSize=8;endSize=8;curved=1;entryX=1;entryY=0;entryDx=0;entryDy=0;" edge="1" parent="1" target="YB7Tp-IhjoN3xwZKIfDS-52">
          <mxGeometry width="50" height="50" relative="1" as="geometry">
            <mxPoint x="140" y="540" as="sourcePoint" />
            <mxPoint x="150" y="540" as="targetPoint" />
          </mxGeometry>
        </mxCell>
        <mxCell id="U5etYMQuqrnoycaMx9IX-2" value="" style="endArrow=none;dashed=1;html=1;dashPattern=1 3;strokeWidth=2;rounded=0;fontSize=12;startSize=8;endSize=8;curved=1;entryX=1;entryY=0;entryDx=0;entryDy=0;" edge="1" parent="1">
          <mxGeometry width="50" height="50" relative="1" as="geometry">
            <mxPoint x="290" y="540" as="sourcePoint" />
            <mxPoint x="290" y="440" as="targetPoint" />
          </mxGeometry>
        </mxCell>
        <mxCell id="U5etYMQuqrnoycaMx9IX-3" value="" style="endArrow=none;dashed=1;html=1;dashPattern=1 3;strokeWidth=2;rounded=0;fontSize=12;startSize=8;endSize=8;curved=1;entryX=1;entryY=0;entryDx=0;entryDy=0;" edge="1" parent="1">
          <mxGeometry width="50" height="50" relative="1" as="geometry">
            <mxPoint x="560" y="540" as="sourcePoint" />
            <mxPoint x="560" y="440" as="targetPoint" />
          </mxGeometry>
        </mxCell>
        <mxCell id="U5etYMQuqrnoycaMx9IX-4" value="" style="endArrow=none;dashed=1;html=1;dashPattern=1 3;strokeWidth=2;rounded=0;fontSize=12;startSize=8;endSize=8;curved=1;entryX=1;entryY=0;entryDx=0;entryDy=0;" edge="1" parent="1">
          <mxGeometry width="50" height="50" relative="1" as="geometry">
            <mxPoint x="709" y="540" as="sourcePoint" />
            <mxPoint x="709" y="440" as="targetPoint" />
          </mxGeometry>
        </mxCell>
        <mxCell id="U5etYMQuqrnoycaMx9IX-5" value="" style="endArrow=classic;startArrow=classic;html=1;rounded=0;fontSize=12;startSize=8;endSize=8;curved=1;" edge="1" parent="1">
          <mxGeometry width="50" height="50" relative="1" as="geometry">
            <mxPoint x="140" y="520" as="sourcePoint" />
            <mxPoint x="290" y="520" as="targetPoint" />
          </mxGeometry>
        </mxCell>
        <mxCell id="U5etYMQuqrnoycaMx9IX-6" value="Gene subset" style="text;html=1;align=center;verticalAlign=middle;whiteSpace=wrap;rounded=0;fontStyle=0" vertex="1" parent="1">
          <mxGeometry x="147.5" y="530" width="135" height="30" as="geometry" />
        </mxCell>
      </root>
    </mxGraphModel>
  </diagram>
</mxfile>
